# xmcd CD database file generated by OrangeCD 6.3
#
# Track frame offsets:
#	150
#	26840
#	45068
#	67051
#	90885
#	113585
#	127221
#	154163
#	168989
#	183330
#	209163
#	226447
#
# Disc length: 3284 seconds
#
# Revision: 0
# Processed by: cddbd v1.5.2PL0 Copyright (c) Steve Scherf et al.
# Submitted via: OrangeCD 6.3
#
DISCID=9e0cd20c
DTITLE=Ilse DeLange - Live in Ahoy
DYEAR=2009
DGENRE=Country
TTITLE0=Broken girl
TTITLE1=We're alright
TTITLE2=World of hurt
TTITLE3=Livin' on love
TTITLE4=I still cry
TTITLE5=When we don't talk
TTITLE6=Flying blind
TTITLE7=Sister golden hair
TTITLE8=I'd be yours
TTITLE9=Heavenless
TTITLE10=Fall
TTITLE11=Have a little faith in me
EXTD=
EXTT0=
EXTT1=
EXTT2=
EXTT3=
EXTT4=
EXTT5=
EXTT6=
EXTT7=
EXTT8=
EXTT9=
EXTT10=
EXTT11=
PLAYORDER=
